<svg aria-hidden="true" style="position: absolute; width: 0; height: 0; overflow: hidden;" version="1.1" xmlns="http://www.w3.org/2000/svg" xmlns:xlink="http://www.w3.org/1999/xlink">
<defs>
<symbol id="icon-logo" viewBox="0 0 32 32">
<path fill="#ff6e40" style="fill: var(--color1, #ff6e40)" d="M27.155 5.201c-6.284 0-11.378 5.094-11.378 11.378 6.284 0 11.378-5.094 11.378-11.378z"></path>
<path fill="#ff6e40" style="fill: var(--color1, #ff6e40)" d="M27.155 26.536c-6.284 0-11.378-5.094-11.378-11.378 6.284 0 11.378 5.094 11.378 11.378z"></path>
<path fill="#ff6e40" style="fill: var(--color1, #ff6e40)" d="M15.777 16.58c-6.284 0-11.378-5.094-11.378-11.378 6.284 0 11.378 5.094 11.378 11.378z"></path>
<path fill="#ff6e40" style="fill: var(--color1, #ff6e40)" d="M15.777 15.156c-6.284 0-11.378 5.094-11.378 11.378 6.284 0 11.378-5.094 11.378-11.378z"></path>
<path fill="#ff6e40" style="fill: var(--color1, #ff6e40)" d="M31.156 16.092c-4.443-4.443-11.647-4.443-16.091 0 4.443 4.443 11.647 4.443 16.091 0z"></path>
<path fill="#ff6e40" style="fill: var(--color1, #ff6e40)" d="M16.934 16.092c-4.443-4.443-11.647-4.443-16.091 0 4.443 4.443 11.647 4.443 16.091 0z"></path>
<path fill="#ff6e40" style="fill: var(--color1, #ff6e40)" d="M16 16.091c-4.443-4.443-4.443-11.647 0-16.091 4.443 4.443 4.443 11.647 0 16.091z"></path>
<path fill="#ff6e40" style="fill: var(--color1, #ff6e40)" d="M16 15.646c-4.443 4.443-4.443 11.647 0 16.090 4.443-4.443 4.443-11.647 0-16.090z"></path>
</symbol>
<symbol id="icon-map" viewBox="0 0 32 32">
<path fill="#ff6e40" style="fill: var(--color1, #ff6e40)" d="M16 0c8.837 0 16 7.163 16 16s-7.163 16-16 16c-8.837 0-16-7.163-16-16s7.163-16 16-16z"></path>
<path fill="#3b322d" style="fill: var(--color2, #3b322d)" d="M21.251 11.982c-0.057-0.213-0.173-0.441-0.258-0.64-1.024-2.46-3.261-3.342-5.067-3.342-2.418 0-5.081 1.621-5.437 4.963v0.683c0 0.029 0.010 0.284 0.024 0.413 0.199 1.593 1.456 3.285 2.395 4.878 1.010 1.706 2.058 3.385 3.096 5.063 0.64-1.095 1.278-2.204 1.904-3.271 0.171-0.313 0.368-0.626 0.539-0.925 0.114-0.199 0.331-0.398 0.43-0.583 1.010-1.849 2.635-3.712 2.635-5.547v-0.754c0-0.199-0.247-0.896-0.26-0.939zM15.97 15.41c-0.711 0-1.489-0.355-1.873-1.337-0.057-0.156-0.053-0.469-0.053-0.498v-0.441c0-1.251 1.062-1.82 1.987-1.82 1.138 0 2.018 0.91 2.018 2.048s-0.941 2.048-2.079 2.048z"></path>
</symbol>
<symbol id="icon-tel" viewBox="0 0 32 32">
<path fill="#ff6e40" style="fill: var(--color1, #ff6e40)" d="M16 0c8.837 0 16 7.163 16 16s-7.163 16-16 16c-8.837 0-16-7.163-16-16s7.163-16 16-16z"></path>
<path fill="#3b322d" style="fill: var(--color2, #3b322d)" d="M21.456 18.009c-0.578-0.571-1.3-0.571-1.875 0-0.438 0.435-0.877 0.869-1.308 1.311-0.118 0.122-0.217 0.147-0.361 0.066-0.284-0.155-0.586-0.28-0.858-0.449-1.271-0.799-2.335-1.827-3.278-2.983-0.468-0.575-0.884-1.19-1.175-1.882-0.059-0.14-0.048-0.232 0.066-0.346 0.438-0.424 0.866-0.858 1.296-1.293 0.6-0.604 0.6-1.311-0.004-1.919-0.342-0.346-0.685-0.685-1.028-1.031-0.354-0.354-0.703-0.711-1.061-1.061-0.578-0.564-1.3-0.564-1.875 0.004-0.442 0.435-0.866 0.88-1.315 1.308-0.416 0.394-0.626 0.877-0.67 1.44-0.070 0.917 0.155 1.783 0.471 2.626 0.648 1.746 1.635 3.296 2.832 4.718 1.617 1.923 3.547 3.444 5.805 4.541 1.017 0.494 2.070 0.873 3.215 0.936 0.788 0.044 1.473-0.155 2.022-0.77 0.376-0.42 0.799-0.803 1.197-1.204 0.589-0.597 0.593-1.319 0.007-1.908-0.7-0.704-1.403-1.403-2.107-2.103z"></path>
</symbol>
</defs>
</svg>
